<svg width="49" height="48" viewBox="0 0 49 48" fill="none" xmlns="http://www.w3.org/2000/svg">
<circle cx="24.3334" cy="24" r="24" fill="#E8E8E8"/>
<path d="M32.4338 18.94C32.4338 19.48 32.1438 19.97 31.6838 20.22L29.9438 21.16L28.4638 21.95L25.3938 23.61C25.0638 23.79 24.7038 23.88 24.3338 23.88C23.9638 23.88 23.6038 23.79 23.2738 23.61L16.9838 20.22C16.5238 19.97 16.2338 19.48 16.2338 18.94C16.2338 18.4 16.5238 17.91 16.9838 17.66L18.9538 16.6L20.5238 15.75L23.2738 14.27C23.9338 13.91 24.7338 13.91 25.3938 14.27L31.6838 17.66C32.1438 17.91 32.4338 18.4 32.4338 18.94Z" fill="#777777"/>
<path d="M22.2341 24.7901L16.3841 21.8701C15.9341 21.6401 15.4141 21.6701 14.9841 21.9301C14.5541 22.1901 14.3041 22.6501 14.3041 23.1501V28.6801C14.3041 29.6401 14.8341 30.5001 15.6941 30.9301L21.5441 33.8501C21.7441 33.9501 21.9641 34.0001 22.1841 34.0001C22.4441 34.0001 22.7041 33.9301 22.9341 33.7801C23.3641 33.5201 23.6141 33.0601 23.6141 32.5601V27.0301C23.6241 26.0801 23.0941 25.2201 22.2341 24.7901Z" fill="#777777"/>
<path d="M34.3643 23.1501V28.6801C34.3643 29.6301 33.8343 30.4901 32.9743 30.9201L27.1243 33.8501C26.9243 33.9501 26.7043 34.0001 26.4843 34.0001C26.2243 34.0001 25.9643 33.9301 25.7243 33.7801C25.3043 33.5201 25.0443 33.0601 25.0443 32.5601V27.0401C25.0443 26.0801 25.5743 25.2201 26.4343 24.7901L28.5843 23.7201L30.0843 22.9701L32.2843 21.8701C32.7343 21.6401 33.2543 21.6601 33.6843 21.9301C34.1043 22.1901 34.3643 22.6501 34.3643 23.1501Z" fill="#777777"/>
<path d="M29.9425 21.16L28.4625 21.95L18.9525 16.6L20.5225 15.75L29.7025 20.93C29.8025 20.99 29.8825 21.07 29.9425 21.16Z" fill="#777777"/>
<path d="M30.0834 22.97V25.24C30.0834 25.65 29.7434 25.99 29.3334 25.99C28.9234 25.99 28.5834 25.65 28.5834 25.24V23.72L30.0834 22.97Z" fill="#777777"/>
</svg>
