<svg width="49" height="48" viewBox="0 0 49 48" fill="none" xmlns="http://www.w3.org/2000/svg">
<circle cx="24.6666" cy="24" r="24" fill="#E8E8E8"/>
<path d="M30.6666 15H18.6666C16.4566 15 14.6666 16.78 14.6666 18.97V29.03C14.6666 31.22 16.4566 33 18.6666 33H30.6666C32.8766 33 34.6666 31.22 34.6666 29.03V18.97C34.6666 16.78 32.8766 15 30.6666 15ZM21.1666 19.17C22.4366 19.17 23.4766 20.21 23.4766 21.48C23.4766 22.75 22.4366 23.79 21.1666 23.79C19.8966 23.79 18.8566 22.75 18.8566 21.48C18.8566 20.21 19.8966 19.17 21.1666 19.17ZM25.0366 28.66C24.9466 28.76 24.8066 28.82 24.6666 28.82H17.6666C17.5266 28.82 17.3866 28.76 17.2966 28.66C17.2066 28.56 17.1566 28.42 17.1666 28.28C17.3366 26.6 18.6766 25.27 20.3566 25.11C20.8866 25.06 21.4366 25.06 21.9666 25.11C23.6466 25.27 24.9966 26.6 25.1566 28.28C25.1766 28.42 25.1266 28.56 25.0366 28.66ZM31.6666 28.75H29.6666C29.2566 28.75 28.9166 28.41 28.9166 28C28.9166 27.59 29.2566 27.25 29.6666 27.25H31.6666C32.0766 27.25 32.4166 27.59 32.4166 28C32.4166 28.41 32.0766 28.75 31.6666 28.75ZM31.6666 24.75H27.6666C27.2566 24.75 26.9166 24.41 26.9166 24C26.9166 23.59 27.2566 23.25 27.6666 23.25H31.6666C32.0766 23.25 32.4166 23.59 32.4166 24C32.4166 24.41 32.0766 24.75 31.6666 24.75ZM31.6666 20.75H26.6666C26.2566 20.75 25.9166 20.41 25.9166 20C25.9166 19.59 26.2566 19.25 26.6666 19.25H31.6666C32.0766 19.25 32.4166 19.59 32.4166 20C32.4166 20.41 32.0766 20.75 31.6666 20.75Z" fill="#1C1C1C"/>
</svg>
