<svg width="49" height="48" viewBox="0 0 49 48" fill="none" xmlns="http://www.w3.org/2000/svg">
<circle cx="24.3334" cy="24" r="24" fill="#E8E8E8"/>
<path d="M30.8742 16.1696L25.3742 14.1096C24.8042 13.8996 23.8742 13.8996 23.3042 14.1096L17.8042 16.1696C16.7442 16.5696 15.8842 17.8096 15.8842 18.9396V27.0396C15.8842 27.8496 16.4142 28.9196 17.0642 29.3996L22.5642 33.5096C23.5342 34.2396 25.1242 34.2396 26.0942 33.5096L31.5942 29.3996C32.2442 28.9096 32.7742 27.8496 32.7742 27.0396V18.9396C32.7842 17.8096 31.9242 16.5696 30.8742 16.1696ZM25.0842 24.8696V27.4996C25.0842 27.9096 24.7442 28.2496 24.3342 28.2496C23.9242 28.2496 23.5842 27.9096 23.5842 27.4996V24.8696C22.5742 24.5496 21.8342 23.6096 21.8342 22.4996C21.8342 21.1196 22.9542 19.9996 24.3342 19.9996C25.7142 19.9996 26.8342 21.1196 26.8342 22.4996C26.8342 23.6196 26.0942 24.5496 25.0842 24.8696Z" fill="#1C1C1C"/>
</svg>
