<svg width="48" height="48" viewBox="0 0 48 48" fill="none" xmlns="http://www.w3.org/2000/svg">
<circle cx="24" cy="24" r="24" fill="#E8E8E8"/>
<path d="M30.8096 18.25H32.1696C31.9796 17.98 31.7796 17.73 31.5696 17.48L30.8096 18.25Z" fill="#4F4F4F"/>
<path d="M30.52 16.42C30.27 16.21 30.02 16.01 29.75 15.82V17.18L30.52 16.42Z" fill="#4F4F4F"/>
<path d="M31.5795 17.4799L34.5295 14.5299C34.8195 14.2399 34.8195 13.7599 34.5295 13.4699C34.2395 13.1799 33.7595 13.1799 33.4695 13.4699L30.5195 16.4199C30.8995 16.7499 31.2495 17.1099 31.5795 17.4799Z" fill="#4F4F4F"/>
<path d="M29.75 15C29.75 14.59 29.41 14.25 29 14.25C28.6 14.25 28.28 14.57 28.26 14.96C28.78 15.21 29.28 15.49 29.75 15.82V15Z" fill="#4F4F4F"/>
<path d="M33.75 19C33.75 18.59 33.41 18.25 33 18.25H32.17C32.5 18.72 32.79 19.22 33.03 19.74C33.43 19.72 33.75 19.4 33.75 19Z" fill="#4F4F4F"/>
<path d="M24.75 26.75H25.05C25.44 26.75 25.75 26.4 25.75 25.97C25.75 25.43 25.6 25.35 25.26 25.23L24.75 25.05V26.75Z" fill="#1C1C1C"/>
<path d="M33.04 19.74C33.03 19.74 33.02 19.75 33 19.75H29C28.9 19.75 28.81 19.73 28.71 19.69C28.53 19.61 28.38 19.47 28.3 19.28C28.27 19.19 28.25 19.1 28.25 19V15C28.25 14.99 28.26 14.98 28.26 14.96C26.96 14.35 25.52 14 24 14C18.48 14 14 18.48 14 24C14 29.52 18.48 34 24 34C29.52 34 34 29.52 34 24C34 22.48 33.65 21.04 33.04 19.74ZM25.75 23.82C26.39 24.04 27.25 24.51 27.25 25.98C27.25 27.23 26.26 28.26 25.05 28.26H24.75V28.51C24.75 28.92 24.41 29.26 24 29.26C23.59 29.26 23.25 28.92 23.25 28.51V28.26H23.17C21.84 28.26 20.75 27.14 20.75 25.76C20.75 25.34 21.09 25 21.5 25C21.91 25 22.25 25.34 22.25 25.75C22.25 26.3 22.66 26.75 23.17 26.75H23.25V24.53L22.25 24.18C21.61 23.96 20.75 23.49 20.75 22.02C20.75 20.77 21.74 19.74 22.95 19.74H23.25V19.5C23.25 19.09 23.59 18.75 24 18.75C24.41 18.75 24.75 19.09 24.75 19.5V19.75H24.83C26.16 19.75 27.25 20.87 27.25 22.25C27.25 22.66 26.91 23 26.5 23C26.09 23 25.75 22.66 25.75 22.25C25.75 21.7 25.34 21.25 24.83 21.25H24.75V23.47L25.75 23.82Z" fill="#1C1C1C"/>
<path d="M22.25 22.03C22.25 22.57 22.4 22.65 22.74 22.77L23.25 22.95V21.25H22.95C22.57 21.25 22.25 21.6 22.25 22.03Z" fill="#1C1C1C"/>
</svg>
