<svg width="36" height="36" viewBox="0 0 36 36" fill="none" xmlns="http://www.w3.org/2000/svg">
<rect width="36" height="36" rx="18" fill="#F4F4F4"/>
<path d="M24.1167 20.075L23.2833 18.6917C23.1083 18.3833 22.95 17.8 22.95 17.4583V15.35C22.95 13.3917 21.8 11.7 20.1417 10.9083C19.7083 10.1417 18.9083 9.66667 17.9917 9.66667C17.0833 9.66667 16.2667 10.1583 15.8333 10.9333C14.2083 11.7417 13.0833 13.4167 13.0833 15.35V17.4583C13.0833 17.8 12.925 18.3833 12.75 18.6833L11.9083 20.075C11.575 20.6333 11.5 21.25 11.7083 21.8167C11.9083 22.375 12.3833 22.8083 13 23.0167C14.6167 23.5667 16.3167 23.8333 18.0167 23.8333C19.7167 23.8333 21.4167 23.5667 23.0333 23.025C23.6167 22.8333 24.0667 22.3917 24.2833 21.8167C24.5 21.2417 24.4417 20.6083 24.1167 20.075Z" fill="#1C1C1C"/>
<path d="M20.3581 24.675C20.0081 25.6417 19.0831 26.3333 17.9998 26.3333C17.3414 26.3333 16.6914 26.0667 16.2331 25.5917C15.9664 25.3417 15.7664 25.0083 15.6498 24.6667C15.7581 24.6833 15.8664 24.6917 15.9831 24.7083C16.1748 24.7333 16.3748 24.7583 16.5748 24.775C17.0498 24.8167 17.5331 24.8417 18.0164 24.8417C18.4914 24.8417 18.9664 24.8167 19.4331 24.775C19.6081 24.7583 19.7831 24.75 19.9498 24.725C20.0831 24.7083 20.2164 24.6917 20.3581 24.675Z" fill="#1C1C1C"/>
<circle cx="23" cy="13" r="3" fill="#F00404"/>
</svg>
