<svg width="49" height="48" viewBox="0 0 49 48" fill="none" xmlns="http://www.w3.org/2000/svg">
<circle cx="24.6666" cy="24" r="24" fill="#E8E8E8"/>
<path d="M19.6666 20H16.6666C15.5666 20 14.6666 19.1 14.6666 18V16C14.6666 14.9 15.5666 14 16.6666 14H19.6666C20.7666 14 21.6666 14.9 21.6666 16V18C21.6666 19.1 20.7666 20 19.6666 20Z" fill="#4F4F4F"/>
<path d="M33.4666 19H29.8666C29.2066 19 28.6666 18.46 28.6666 17.8V16.2C28.6666 15.54 29.2066 15 29.8666 15H33.4666C34.1266 15 34.6666 15.54 34.6666 16.2V17.8C34.6666 18.46 34.1266 19 33.4666 19Z" fill="#4F4F4F"/>
<path d="M33.4666 26.5H29.8666C29.2066 26.5 28.6666 25.96 28.6666 25.3V23.7C28.6666 23.04 29.2066 22.5 29.8666 22.5H33.4666C34.1266 22.5 34.6666 23.04 34.6666 23.7V25.3C34.6666 25.96 34.1266 26.5 33.4666 26.5Z" fill="#4F4F4F"/>
<path opacity="0.96" d="M28.6666 25.25C29.0766 25.25 29.4166 24.91 29.4166 24.5C29.4166 24.09 29.0766 23.75 28.6666 23.75H25.9166V17.75H28.6666C29.0766 17.75 29.4166 17.41 29.4166 17C29.4166 16.59 29.0766 16.25 28.6666 16.25H21.6666C21.2566 16.25 20.9166 16.59 20.9166 17C20.9166 17.41 21.2566 17.75 21.6666 17.75H24.4166V30C24.4166 31.52 25.6466 32.75 27.1666 32.75H28.6666C29.0766 32.75 29.4166 32.41 29.4166 32C29.4166 31.59 29.0766 31.25 28.6666 31.25H27.1666C26.4766 31.25 25.9166 30.69 25.9166 30V25.25H28.6666Z" fill="#4F4F4F"/>
<path d="M33.4666 34H29.8666C29.2066 34 28.6666 33.46 28.6666 32.8V31.2C28.6666 30.54 29.2066 30 29.8666 30H33.4666C34.1266 30 34.6666 30.54 34.6666 31.2V32.8C34.6666 33.46 34.1266 34 33.4666 34Z" fill="#4F4F4F"/>
</svg>
