<svg width="49" height="48" viewBox="0 0 49 48" fill="none" xmlns="http://www.w3.org/2000/svg">
<circle cx="24.6666" cy="24" r="24" fill="#E8E8E8"/>
<path d="M21.6666 14C19.0466 14 16.9166 16.13 16.9166 18.75C16.9166 21.32 18.9266 23.4 21.5466 23.49C21.6266 23.48 21.7066 23.48 21.7666 23.49C21.7866 23.49 21.7966 23.49 21.8166 23.49C21.8266 23.49 21.8266 23.49 21.8366 23.49C24.3966 23.4 26.4066 21.32 26.4166 18.75C26.4166 16.13 24.2866 14 21.6666 14Z" fill="#1C1C1C"/>
<path d="M26.7476 26.1499C23.9576 24.2899 19.4076 24.2899 16.5976 26.1499C15.3276 26.9999 14.6276 28.1499 14.6276 29.3799C14.6276 30.6099 15.3276 31.7499 16.5876 32.5899C17.9876 33.5299 19.8276 33.9999 21.6676 33.9999C23.5076 33.9999 25.3476 33.5299 26.7476 32.5899C28.0076 31.7399 28.7076 30.5999 28.7076 29.3599C28.6976 28.1299 28.0076 26.9899 26.7476 26.1499Z" fill="#4F4F4F"/>
<path d="M32.656 19.3401C32.816 21.2801 31.436 22.9801 29.526 23.2101C29.516 23.2101 29.516 23.2101 29.506 23.2101H29.476C29.416 23.2101 29.356 23.2101 29.306 23.2301C28.336 23.2801 27.446 22.9701 26.776 22.4001C27.806 21.4801 28.396 20.1001 28.276 18.6001C28.206 17.7901 27.926 17.0501 27.506 16.4201C27.886 16.2301 28.326 16.1101 28.776 16.0701C30.736 15.9001 32.486 17.3601 32.656 19.3401Z" fill="#4F4F4F"/>
<path d="M34.6566 28.59C34.5766 29.56 33.9566 30.4 32.9166 30.97C31.9166 31.52 30.6566 31.78 29.4066 31.75C30.1266 31.1 30.5466 30.29 30.6266 29.43C30.7266 28.19 30.1366 27 28.9566 26.05C28.2866 25.52 27.5066 25.1 26.6566 24.79C28.8666 24.15 31.6466 24.58 33.3566 25.96C34.2766 26.7 34.7466 27.63 34.6566 28.59Z" fill="#4F4F4F"/>
</svg>
